<?xml version="1.0" encoding="utf-8"?>
<!-- Generator: Adobe Illustrator 25.0.1, SVG Export Plug-In . SVG Version: 6.00 Build 0)  -->
<svg version="1.1" id="Calque_1" xmlns="http://www.w3.org/2000/svg" xmlns:xlink="http://www.w3.org/1999/xlink" x="0px" y="0px"
	 viewBox="0 0 121.2 51" style="enable-background:new 0 0 121.2 51;" xml:space="preserve">
<style type="text/css">
	.st0{fill:#FFC302;}
	.st1{fill:#FFFFFF;}
</style>
<g id="Groupe_14" transform="translate(-148.993 -495.757)">
	<g id="Groupe_13" transform="translate(148.993 495.757)">
		<rect id="Rectangle_39" x="4.9" y="15.1" class="st0" width="2.2" height="2.2"/>
		<rect id="Rectangle_40" x="12.6" y="11.2" class="st0" width="2.5" height="2.8"/>
		<path id="Tracé_38" class="st0" d="M15.6,6.3l-3.9-1.8L8.2,5.6l3.9,1.8L15.6,6.3z"/>
		<path id="Tracé_39" class="st0" d="M11.1,11.2H2.9c0,1.1-0.9,2-2,2v8.2h10.2V11.2z M8.6,18.8H3.4v-5.2h5.2V18.8z"/>
		<path id="Tracé_40" class="st0" d="M21.9,4.2l-3.9-1.8l-3.5,1.2l3.9,1.8L21.9,4.2z"/>
		<path id="Tracé_41" class="st0" d="M25.9,2.8L25,0l-4.3,1.4l3.9,1.8L25.9,2.8z"/>
		<path id="Tracé_42" class="st0" d="M15.1,15.9h-2.5v7H4.7v2.5h11.9v-2.5h-1.5L15.1,15.9z"/>
		<rect id="Rectangle_41" x="20.6" y="15.1" class="st0" width="2.2" height="2.2"/>
		<path id="Tracé_43" class="st0" d="M16.6,11.2v10.2h10.2V11.2H16.6z M24.2,18.8H19v-5.2h5.2V18.8z"/>
		<path id="Tracé_44" class="st0" d="M0.9,37.2h10.2V27H0.9V37.2z M3.4,29.5h5.2v5.2H3.4V29.5z"/>
		<path id="Tracé_45" class="st0" d="M0.9,9.2c0.9,0,1.6,0.6,1.9,1.4l6.6-2.2L5.5,6.6L0,8.4l0.3,0.9C0.5,9.2,0.7,9.2,0.9,9.2z"/>
		<rect id="Rectangle_42" x="0.9" y="22.9" class="st0" width="2.8" height="2.5"/>
		<rect id="Rectangle_43" x="4.9" y="31" class="st0" width="2.2" height="2.2"/>
	</g>
	<path id="Tracé_46" class="st1" d="M184.3,527.3c0.2-7.2-6.3-13.2-13.6-13c-7.3-0.2-13.7,5.8-13.5,13c-0.2,7.3,6.2,13.1,13.5,13
		c1.2,0,2.4-0.1,3.5-0.4l4.6,6.7l5.3-3.7l-4.2-6.1C182.8,534.5,184.3,531,184.3,527.3z M165.8,532.4c-1.3-1.4-2-3.2-1.9-5.1
		c-0.2-3.6,2.6-6.8,6.2-7c0.2,0,0.4,0,0.6,0c3.9,0.1,6.9,3.3,6.8,7.2s-3.3,6.9-7.2,6.8C168.7,534.3,167.1,533.6,165.8,532.4
		L165.8,532.4z M200.7,539.9l-5.7-7.8h-2.7v7.8h-6.5v-25.1h9.9c5.6,0,9.7,3.4,9.7,8.6c0.1,2.9-1.5,5.6-4,7.2l6.6,9.3L200.7,539.9z
		 M192.3,526.4h3.3c1.5,0.1,2.9-1,3-2.6c0-0.1,0-0.2,0-0.4c0.1-1.5-1.1-2.8-2.6-2.9c-0.1,0-0.3,0-0.4,0h-3.3V526.4z M216.8,520.8
		c3.2-0.1,6.2,1.6,7.9,4.3l-2.8,2.2c-1.1-1.8-3-2.8-5-2.9c-3.4,0.1-6,2.9-5.8,6.3c0.1,3.2,2.7,5.7,5.8,5.8c2,0,3.9-1.1,5-2.8
		l2.8,2.2c-1.7,2.7-4.7,4.4-7.9,4.3c-5.4,0.1-9.8-4.2-9.9-9.6s4.2-9.8,9.6-9.9C216.7,520.8,216.7,520.8,216.8,520.8z M226.3,511.4h4
		v28.5h-4V511.4z M248,539.9h-3.7v-2.1c-1.5,1.7-3.7,2.6-6,2.5c-3.9,0-6.5-2.2-6.5-5.4s2.7-5.3,6.9-5.3h5.3v-1.2c0-2.6-1.4-4-4-4
		c-2.1,0-3.6,0.9-5.2,2.8l-2.3-2.4c1.8-2.6,4.7-4.1,7.9-4c4.6,0,7.6,2.8,7.6,7.8L248,539.9z M244,532.5h-4.8c-2.1,0-3.3,0.8-3.3,2.3
		c0,1.6,1.3,2.5,3.3,2.5c2.5,0.2,4.7-1.7,4.8-4.3c0-0.1,0-0.1,0-0.2L244,532.5z M261,540.3c-2.4,0.1-4.7-0.9-6.2-2.7v9.1h-4v-25.5
		h3.7v2.6c1.5-2,4-3.2,6.5-3c5.3,0,9.2,4.2,9.2,9.7C270.2,536.1,266.3,540.3,261,540.3L261,540.3z M260.3,524.5
		c-2.9,0-5.6,2-5.6,6.1c0,4.1,2.7,6.1,5.6,6.1c3.2,0,5.7-2.6,5.7-5.8c0-0.1,0-0.2,0-0.3C266,527,263.6,524.5,260.3,524.5
		L260.3,524.5z"/>
</g>
</svg>
