<svg xmlns="http://www.w3.org/2000/svg" width="121.167" height="51" viewBox="0 0 121.167 51">
  <g id="Groupe_14" data-name="Groupe 14" transform="translate(-148.993 -495.757)">
    <g id="Groupe_13" data-name="Groupe 13" transform="translate(148.993 495.757)">
      <rect id="Rectangle_39" data-name="Rectangle 39" width="2.207" height="2.207" transform="translate(4.929 15.093)" fill="#ffc302"/>
      <rect id="Rectangle_40" data-name="Rectangle 40" width="2.482" height="2.759" transform="translate(12.593 11.152)" fill="#ffc302"/>
      <path id="Tracé_38" data-name="Tracé 38" d="M172.959,506.555l-3.948-1.815-3.5,1.175,3.948,1.815Z" transform="translate(-157.312 -500.28)" fill="#ffc302"/>
      <path id="Tracé_39" data-name="Tracé 39" d="M161.065,518.222h-8.181a1.988,1.988,0,0,1-1.988,1.988v8.181h10.169Zm-2.482,7.687h-5.2v-5.2h5.2Z" transform="translate(-149.951 -507.07)" fill="#ffc302"/>
      <path id="Tracé_40" data-name="Tracé 40" d="M185.535,502.329l-3.948-1.815-3.5,1.175,3.948,1.816Z" transform="translate(-163.645 -498.152)" fill="#ffc302"/>
      <path id="Tracé_41" data-name="Tracé 41" d="M195.895,498.581l-.949-2.823-4.28,1.438,3.948,1.815Z" transform="translate(-169.978 -495.757)" fill="#ffc302"/>
      <path id="Tracé_42" data-name="Tracé 42" d="M168.843,527.885h-2.482v6.954h-7.885v2.482h11.879v-2.482h-1.511Z" transform="translate(-153.768 -511.936)" fill="#ffc302"/>
      <rect id="Rectangle_41" data-name="Rectangle 41" width="2.207" height="2.207" transform="translate(20.58 15.093)" fill="#ffc302"/>
      <path id="Tracé_43" data-name="Tracé 43" d="M182.338,518.222v10.169h10.169V518.222Zm7.687,7.687h-5.2v-5.2h5.2Z" transform="translate(-165.784 -507.07)" fill="#ffc302"/>
      <path id="Tracé_44" data-name="Tracé 44" d="M150.9,560.355h10.169V550.186H150.9Zm2.482-7.687h5.2v5.2h-5.2Z" transform="translate(-149.951 -523.166)" fill="#ffc302"/>
      <path id="Tracé_45" data-name="Tracé 45" d="M149.938,511.573a1.982,1.982,0,0,1,1.894,1.414l6.565-2.206-3.948-1.815-5.455,1.833.3.891A1.959,1.959,0,0,1,149.938,511.573Z" transform="translate(-148.993 -502.409)" fill="#ffc302"/>
      <rect id="Rectangle_42" data-name="Rectangle 42" width="2.773" height="2.482" transform="translate(0.945 22.903)" fill="#ffc302"/>
      <rect id="Rectangle_43" data-name="Rectangle 43" width="2.207" height="2.207" transform="translate(4.929 31.014)" fill="#ffc302"/>
    </g>
    <path id="Tracé_46" data-name="Tracé 46" d="M192.62,543.18c.152-7.193-6.279-13.168-13.586-13.015-7.345-.152-13.662,5.823-13.51,13.015-.152,7.268,6.165,13.13,13.51,13.016a13.493,13.493,0,0,0,3.529-.417l4.631,6.72,5.314-3.662-4.2-6.1A12.419,12.419,0,0,0,192.62,543.18Zm-18.5,5.1a7.045,7.045,0,0,1-1.9-5.1,6.614,6.614,0,0,1,6.85-7,7,7,0,1,1-4.947,12.1Zm34.911,7.459-5.67-7.8h-2.7v7.8h-6.546V530.621h9.857c5.594,0,9.7,3.425,9.7,8.639a8.179,8.179,0,0,1-3.958,7.155l6.622,9.323Zm-8.372-13.51h3.349a2.807,2.807,0,0,0,3.006-2.968,2.778,2.778,0,0,0-3.006-2.931h-3.349Zm24.507-5.595a8.9,8.9,0,0,1,7.877,4.339l-2.816,2.207a5.947,5.947,0,0,0-5.023-2.854,6.074,6.074,0,0,0,0,12.14,6.093,6.093,0,0,0,5.023-2.816l2.816,2.169a9.04,9.04,0,0,1-7.877,4.339,9.763,9.763,0,1,1,0-19.524Zm9.436-9.438h4v28.542h-4Zm21.768,28.542h-3.73v-2.093a7.473,7.473,0,0,1-5.975,2.512c-3.92,0-6.508-2.169-6.508-5.4s2.664-5.328,6.888-5.328h5.29v-1.217c0-2.588-1.446-4-4-4-2.093,0-3.616.913-5.176,2.778l-2.321-2.36a9.153,9.153,0,0,1,7.877-4c4.6,0,7.65,2.779,7.65,7.8Zm-4.034-7.421h-4.8c-2.131,0-3.311.761-3.311,2.283,0,1.561,1.332,2.474,3.272,2.474a4.547,4.547,0,0,0,4.833-4.415Zm16.972,7.84a8.1,8.1,0,0,1-6.241-2.7v9.134h-4V537.053H262.8v2.626a7.785,7.785,0,0,1,6.508-3.045c5.29,0,9.172,4.225,9.172,9.742C278.483,551.97,274.6,556.157,269.311,556.157Zm-.647-15.87c-2.93,0-5.633,2.017-5.633,6.089,0,4.11,2.7,6.128,5.633,6.128a5.751,5.751,0,0,0,5.708-6.089C274.373,542.838,271.9,540.287,268.664,540.287Z" transform="translate(-8.323 -15.831)" fill="#262626"/>
  </g>
</svg>
